<svg role="img" viewBox="0 0 24 24" xmlns="http://www.w3.org/2000/svg"><title>GitHub</title><path fill="white" d="M12 .296C5.373.296 0 5.67 0 12.297c0 5.302 3.438 9.8 8.205 11.387.599.111.82-.26.82-.577v-2.041c-3.338.726-4.033-1.416-4.033-1.416-.546-1.388-1.333-1.756-1.333-1.756-1.089-.745.083-.729.083-.729 1.205.086 1.84 1.238 1.84 1.238 1.07 1.834 2.809 1.304 3.495.997.108-.775.418-1.305.761-1.605-2.665-.303-5.467-1.333-5.467-5.93 0-1.31.47-2.381 1.235-3.221-.124-.303-.536-1.523.116-3.176 0 0 1.008-.322 3.301 1.23.957-.266 1.983-.398 3.003-.403 1.02.005 2.047.137 3.006.403 2.29-1.552 3.296-1.23 3.296-1.23.653 1.653.241 2.873.118 3.176.77.84 1.233 1.911 1.233 3.221 0 4.61-2.807 5.624-5.479 5.921.43.372.823 1.104.823 2.223v3.293c0 .32.218.694.825.576C20.565 22.092 24 17.592 24 12.297 24 5.67 18.627.296 12 .296z"/></svg>