<svg role="img" viewBox="0 0 24 24" xmlns="http://www.w3.org/2000/svg"><title>LinkedIn</title><path fill="white" d="M20.447 20.452h-3.554v-5.569c0-1.327-.025-3.037-1.85-3.037-1.851 0-2.134 1.445-2.134 2.939v5.667H9.353V9h3.414v1.561h.048c.476-.9 1.637-1.85 3.367-1.85 3.599 0 4.263 2.37 4.263 5.455v6.286zM5.337 7.433a2.063 2.063 0 1 1 0-4.126 2.063 2.063 0 0 1 0 4.126zM6.838 20.452H3.838V9h3zM22.225 0H1.771C.792 0 0 .774 0 1.729v20.542C0 23.227.792 24 1.771 24h20.451C23.2 24 24 23.227 24 22.271V1.729C24 .774 23.2 0 22.225 0z"/></svg>